<svg xmlns="http://www.w3.org/2000/svg" height="400px" width="323px" viewBox="0 0 47700 59200">
    <g id="municipalities" fill="#d5daa3" stroke="black" stroke-width="23" transform="translate(0,59421.9) scale(1, -1)">
        <path id="21"
              d="M 22486.1,57616.4 20884.65,58424.03 20978.87,58732.819 20630.769,58739.82 20366.012,59184.041 21183.841,59421.924 22482.081,58513.961 23167.741,58396.86 23083.092,57590.253 22486.105,57616.4 z"
              fill="#d5daa3" stroke="black">
            <title>Feuerthalen</title>
        </path>
        <path id="23"
              d="M 19767.5,57399 20006.598,57841.123 19757.672,58970.993 20366.033,59184.041 20630.79,58739.82 20978.891,58732.819 20884.671,58424.03 22486.121,57616.4 21955.253,57337.034 20745.503,57589.954 19767.5,57399.004 z"
              fill="#d5daa3" stroke="black">
            <title>Flurlingen</title>
        </path>
        <path id="28"
              d="M 19767.5,57399 20745.503,57589.95 21955.253,57337.03 22486.121,57616.396 23083.108,57590.249 23748.92,56951.698 23803.466,56289.582 23258.668,56365.52 22019.278,56303.98 21854.47,55937.075 20532.89,55573.945 20051.755,55786.797 19664.267,56955.097 19246.092,56747.921 18857.892,57036.441 18709.436,56131.23 19086.159,55743.545 18650.599,55942.918 18441.744,56575.198 18953.069,57575.588 19405.383,57251.933 19767.503,57399.003 z"
              fill="#d5daa3" stroke="black">
            <title>Laufen-Uhwiesen</title>
        </path>
        <path id="19"
              d="M 20726.6,54107.9 20138.37,54288.78 20088.482,54879.564 19086.102,55743.514 18709.379,56131.199 18857.835,57036.41 19246.035,56747.89 19664.21,56955.066 20051.698,55786.766 20532.833,55573.914 21012.399,55176.092 20726.598,54107.902 z"
              fill="#d5daa3" stroke="black">
            <title>Dachsen</title>
        </path>
        <path id="16"
              d="M 22284.8,53424.8 22022.334,53784.772 21624.093,53609.89 21450.823,53881.031 21387.309,53441.183 20876.258,53764.872 20726.662,54107.943 21012.463,55176.133 20532.897,55573.955 21854.477,55937.085 22019.285,56303.99 23258.675,56365.53 23324.619,54680.22 23030.961,54652.771 22892.82,53798.637 22652.181,53655.664 22541.379,53899.887 22284.797,53424.797 z"
              fill="#d5daa3" stroke="black">
            <title>Benken (ZH)</title>
        </path>
        <path id="201"
              d="M 32147.231,56376.16 31705.043,54925.378 31250.942,54523.035 30403.901,54503.201 V 54503.201 L 30403.921,54503.161 29092.144,53351.434 28915.009,52119.604 V 52119.604 L 29587.484,52030.061 29685.982,51696.77 29300.507,51428.368 29818.81,50916.674 30256.839,51086.127 32202.21,50169.428 V 50169.408 50169.408 L 32284.333,49491.386 33343.824,49253.054 33463.929,50616.166 34138.546,51011.893 34068.583,52191.354 34598.466,52407.125 35144.558,53697.195 35010.066,54377.727 34143.33,54655.658 V 54655.658 L 33398.116,54936.322 33403.78,56326.553 Z"
              fill="#d5daa3" stroke="black">
            <title>Stammheim</title>
        </path>
        <path id="34"
              d="M 22284.8,53424.8 22541.382,53899.89 22652.184,53655.667 22892.823,53798.64 23030.964,54652.774 23324.622,54680.223 23258.678,56365.533 23803.476,56289.595 24628.406,54540.985 26191.036,53668.331 26601.067,53950.099 26834.481,53666.232 26921.585,53015.6 26503.121,52815.989 25599.254,52692.232 25811.856,51770.151 25217.958,52112.869 24701.302,51985.233 24178.391,52299.571 23083.171,52219.34 22729.442,52447.793 23108.309,52596.136 22284.795,53424.801 z"
              fill="#d5daa3" stroke="black">
            <title>Trüllikon</title>
        </path>
        <path id="32"
              d="M 20138.4,54288.8 20726.63,54107.92 20876.226,53764.849 21133.663,53195.577 20707.166,52759.323 20207.207,52868.464 19565.909,52226.032 20298.985,51674.491 20286.339,51351.274 19240.119,50716.165 19445.858,50343.41 19815.195,50442.464 19402.673,49781.704 19622.222,49504.777 18626.999,49181.617 18808.255,49751.254 18561.752,49683.185 18337.294,50100.659 18454.177,50650.137 17671.347,53457.577 18411.964,54679.357 18744.873,54640.274 19084.184,54004.387 18247.919,53275.092 18472.319,53029.792 19764.159,53431.93 20138.396,54288.8 z"
              fill="#d5daa3" stroke="black">
            <title>Rheinau</title>
        </path>
        <path id="29"
              d="M 19538.1,48746.3 18652.003,48434.484 18001.227,48694.468 17571.053,48385.144 17776.608,49524.834 18337.307,50100.614 18561.765,49683.14 18808.268,49751.208 18627.012,49181.571 19622.235,49504.731 19402.686,49781.658 19815.208,50442.418 19445.871,50343.365 19240.132,50716.12 20286.352,51351.229 20298.998,51674.446 19565.922,52225.987 20207.22,52868.419 20707.179,52759.278 21133.676,53195.532 20876.239,53764.804 21387.29,53441.115 21450.804,53880.963 21624.074,53609.822 22022.315,53784.704 22284.781,53424.732 23108.295,52596.067 22729.428,52447.724 23083.157,52219.271 22925.322,50240.141 21273.102,49516.633 21062.779,48865.975 19538.099,48746.302 z"
              fill="#d5daa3" stroke="black">
            <title>Marthalen</title>
        </path>
        <path id="35"
              d="M 29092.1,53351.4 28914.966,52119.57 27366.996,51465.231 26872.075,51877.284 26919.149,52203.694 26401.631,52321.695 26503.105,52815.926 26921.569,53015.537 26834.465,53666.169 28804.795,53836.472 29092.095,53351.405 z"
              fill="#d5daa3" stroke="black">
            <title>Truttikon</title>
        </path>
        <path id="31"
              d="M 25603.4,48590.7 25443.366,48698.518 25796.336,49139.703 25475.039,49455.366 25925.424,50049.424 25791.842,50441.539 24748.202,50741.823 24701.241,51985.263 25217.897,52112.899 25811.795,51770.181 25599.193,52692.262 26503.06,52816.019 26401.586,52321.788 26919.104,52203.787 26872.03,51877.377 27366.951,51465.324 28914.921,52119.663 29587.396,52030.12 29685.893,51696.829 29300.42,51428.427 29037.082,51439.629 29035.242,50493.676 28612.762,50370.398 28561.939,49941.142 29282.463,49063.161 29054.742,48665.44 29254.824,48201.764 28516.078,47729.176 28074.582,48647.794 27595.083,48599.749 26941.142,48482.425 27498.023,48942.256 27154.103,49497.598 25900.843,48510.232 25603.402,48590.703 z"
              fill="#d5daa3" stroke="black">
            <title>Ossingen</title>
        </path>
        <path id="55"
              d="M 13911.9,48044 12806.18,49043.516 12277.532,50191.666 12348.381,51520.396 11768.411,52356.065 12082.941,52612.791 13453.971,52256.93 13442.932,51737.799 14889.852,51553.893 15280.771,50697.666 15759.98,50759.695 16149.499,50219.71 15550.871,49941.728 15317.718,48779.978 14811.562,48571.217 14757.169,48161.422 14176.199,48018.594 13911.903,48044.007 z"
              fill="#d5daa3" stroke="black">
            <title>Rafz</title>
        </path>
        <path id="59"
              d="M 11768.4,52356.1 12348.37,51520.431 12277.521,50191.701 12806.169,49043.551 13911.889,48044.035 13234.118,47421.007 12556.936,48100.568 11724.168,48056.89 11573.47,48356.797 10476.74,48573.104 10167.944,49382.007 9426.8814,49295.038 8890.2174,49938.572 8988.2324,50444.087 10049.072,50372.753 11175.472,50731.851 11099.717,51431.351 11677.397,51391.514 11768.402,52356.093 z"
              fill="#d5daa3" stroke="black">
            <title>Wil (ZH)</title>
        </path>
        <path id="27"
              d="M 19538.1,48746.3 21062.78,48865.973 21273.103,49516.631 22925.323,50240.139 23083.158,52219.269 24178.378,52299.5 24701.289,51985.162 24748.25,50741.722 25791.89,50441.438 25925.472,50049.323 25475.087,49455.265 25796.384,49139.602 25443.414,48698.417 23993.224,48792.729 23370.2,49650.358 22887.997,49776.622 21998.515,48446.472 21929.159,47715.893 21118.2,47969.495 19538.11,48746.297 z"
              fill="#d5daa3" stroke="black">
            <title>Kleinandelfingen</title>
        </path>
        <path id="58"
              d="M 8890.26,49938.5 9426.924,49294.966 9018.963,48572.021 9636.083,47365.631 8207.893,46954.574 7620.853,47443.366 7313.086,48989.196 8047.353,49069.47 8329.708,49695.963 8686.786,49608.975 8890.263,49938.506 z"
              fill="#d5daa3" stroke="black">
            <title>Wasterkingen</title>
        </path>
        <path id="24"
              d="M 21247.4,47529.8 21118.196,47969.503 21929.155,47715.901 21998.511,48446.48 22887.993,49776.63 23370.196,49650.366 23993.22,48792.737 25443.41,48698.425 25603.444,48590.607 25599.262,48202.733 26699.812,47640.561 26063.574,46968.937 25510.299,47691.659 24899.517,47879.666 24340.123,47142.752 23816.463,47106.75 23035.355,47520.515 22543.774,47433.079 21815.805,47410.145 21247.393,47529.801 z"
              fill="#d5daa3" stroke="black">
            <title>Andelfingen</title>
        </path>
        <path id="15"
              d="M 25893.2,45834.1 25699.15,46279.401 24721.606,46030.272 23816.472,47106.802 24340.132,47142.803 24899.526,47879.717 25510.308,47691.71 26063.583,46968.988 26699.821,47640.612 25599.271,48202.784 25603.453,48590.658 25900.894,48510.188 27154.154,49497.554 27498.074,48942.212 26941.193,48482.381 27595.134,48599.705 27553.263,48057.528 26973.302,47629.7 28285.862,46273.5 27990.781,45889.169 26300.001,46864.384 26331.213,46172.351 25893.206,45834.098 z"
              fill="#d5daa3" stroke="black">
            <title>Adlikon</title>
        </path>
        <path id="49"
              d="M 10204.1,46670.1 9636.068,47365.65 9018.948,48572.04 9426.909,49294.985 10167.972,49381.954 10476.768,48573.051 11573.498,48356.744 11724.196,48056.837 11843.241,46764.627 10204.101,46670.1 z"
              fill="#d5daa3" stroke="black">
            <title>Hüntwangen</title>
        </path>
        <path id="22"
              d="M 17571,48385.2 18001.174,48694.524 18651.95,48434.54 19538.047,48746.356 21118.137,47969.554 21247.341,47529.851 20250.679,47429.484 19600.554,46508.507 19639.705,45796.204 19329.576,45838.867 19121.465,45351.516 18298.174,45797.038 16031.884,46001.911 16643.419,46417.761 16483.713,47680.251 17570.993,48385.198 z"
              fill="#d5daa3" stroke="black">
            <title>Flaach</title>
        </path>
        <path id="33"
              d="M 28285.8,46273.5 26973.24,47629.7 27553.201,48057.528 27595.072,48599.705 28074.571,48647.749 28516.067,47729.131 29254.813,48201.719 30286.133,48280.041 30378.665,46314.051 30833.866,45416.856 29723.486,45773.753 29439.233,46232.864 28816.175,45771.135 28285.801,46273.496 z"
              fill="#d5daa3" stroke="black">
            <title>Thalheim an der Thur</title>
        </path>
        <path id="139"
              d="M 33333.5,45130.8 31904,45363.34 30833.94,45416.867 30378.739,46314.062 30286.207,48280.052 33621.067,47258.582 33251.02,46966.141 33641.954,46853.779 33540.121,46356.907 33959.217,45907.923 33333.495,45130.803 z"
              fill="#d5daa3" stroke="black">
            <title>Altikon</title>
        </path>
        <path id="43"
              d="M 14716.2,43627.1 14721.671,43328.949 14477.803,43314.046 13225.303,44389.806 12712.923,44444.783 12166.438,44149.719 11877.707,45467.619 10577.567,45558.678 10654.019,45960.865 9530.759,45867.429 9147.188,46006.529 9390.584,46208.23 9653.089,46303.536 10204.14,46670.07 11843.28,46764.597 11724.235,48056.807 12557.003,48100.485 13234.185,47420.924 13911.956,48043.952 14176.252,48018.539 13252.934,47379.673 13383.745,46971.062 13127.13,46826.424 13626.712,46394.864 13242.398,46063.696 14105.484,45944.916 13749.683,45474.333 14716.207,43627.103 z"
              fill="#d5daa3" stroke="black">
            <title>Eglisau</title>
        </path>
        <path id="37"
              d="M 20492.8,45050.2 19446.75,45201.113 19121.546,45351.504 19329.657,45838.855 19639.786,45796.192 19600.635,46508.495 20250.76,47429.472 21247.422,47529.839 21815.834,47410.183 21437.019,46778.234 21000.143,46711.474 20847.506,45346.584 20492.803,45050.203 z"
              fill="#d5daa3" stroke="black">
            <title>Volken</title>
        </path>
        <path id="26"
              d="M 22543.8,47433.1 23035.381,47520.536 23816.489,47106.771 24721.623,46030.241 25699.167,46279.37 25893.217,45834.069 25668.645,45309.824 25324.375,45677.994 23907.145,45702.679 23244.496,44715.08 22993.49,44724.546 22765.159,45504.672 23080.204,45744.097 23015.106,46210.231 22488.065,46786.885 22543.8,47433.105 z"
              fill="#d5daa3" stroke="black">
            <title>Humlikon</title>
        </path>
        <path id="20"
              d="M 20492.8,45050.2 20847.503,45346.581 21000.14,46711.471 21437.016,46778.231 21815.831,47410.18 22543.8,47433.114 22488.065,46786.894 23015.106,46210.24 23080.204,45744.106 22765.159,45504.681 22993.49,44724.555 22369.513,44231.928 21902.861,44360.891 21016.73,44463.419 20492.801,45050.197 z"
              fill="#d5daa3" stroke="black">
            <title>Dorf</title>
        </path>
        <path id="142"
              d="M 29314.2,43264.2 28696.845,42848.964 27942.305,43218.796 27906.589,43630.705 27371.064,43519.241 27116.884,44256.937 27034.566,44048.723 26158.509,44826.784 25531.75,44842.047 25668.639,45309.875 25893.211,45834.12 26331.218,46172.373 26300.006,46864.406 27990.786,45889.191 28285.867,46273.522 28816.241,45771.161 29361.957,44416.441 28888.807,44131.11 29314.204,43264.196 z"
              fill="#d5daa3" stroke="black">
            <title>Dägerlen</title>
        </path>
        <path id="46"
              d="M 11933.6,42611.5 10943.321,41909.405 10675.958,42425.336 8464.008,44289.366 7657.864,43818.111 7333.638,44087.601 8242.933,44775.434 7923.718,45649.028 8880.954,46287.852 9390.515,46208.255 9147.119,46006.554 9530.69,45867.454 10653.95,45960.891 10577.498,45558.704 11877.638,45467.644 12166.369,44149.744 12712.854,44444.808 12844.033,43099.348 12541.342,43274.777 11933.594,42611.493 z"
              fill="#d5daa3" stroke="black">
            <title>Glattfelden</title>
        </path>
        <path id="144"
              d="M 29314.2,43264.2 28888.803,44131.114 29361.953,44416.445 28816.237,45771.165 29439.295,46232.894 29723.548,45773.783 30833.928,45416.886 31903.988,45363.359 31537.251,44960.542 32139.771,43799.382 31696.664,43627.417 31999.808,43635.67 31954.557,42851.165 31423.295,42882.888 29855.595,43284.322 29314.201,43264.205 z"
              fill="#d5daa3" stroke="black">
            <title>Dinhard</title>
        </path>
        <path id="146"
              d="M 34241.4,43820.7 33333.486,45130.83 33959.208,45907.95 34439.886,45829.847 34877.731,46159.039 35447.799,45951.355 35534.879,46206.585 36109.756,45972.737 36150.21,45323.463 37034.826,45151.216 37054.053,44834.441 35432.303,44447.86 35474.546,43947.387 35047.961,43930.839 34241.404,43820.699 z"
              fill="#d5daa3" stroke="black">
            <title>Ellikon an der Thur</title>
        </path>
        <path id="17"
              d="M 15712.4,44682.9 16031.945,46001.94 18298.235,45797.067 19121.526,45351.545 19446.73,45201.154 18944.599,44541.773 19175.644,43786.923 18837.948,42987.984 17966.691,43035.735 17205.595,43902.222 16480.055,43865.656 16530.376,44322.752 15712.404,44682.898 z"
              fill="#d5daa3" stroke="black">
            <title>Berg am Irchel</title>
        </path>
        <path id="25"
              d="M 24730.8,43693.6 24176.65,43472.16 23988.833,44314.598 23244.502,44715.108 23907.151,45702.707 25324.381,45678.022 25668.651,45309.852 25531.762,44842.024 25170.208,44702.07 24730.8,43693.6 z"
              fill="#d5daa3" stroke="black">
            <title>Henggart</title>
        </path>
        <path id="82"
              d="M 6198.86,41834 5755.208,41721.869 4790.693,42711.875 4439.201,42677.889 4207.284,43575.148 4512.16,44822.348 7923.76,45649.058 8242.975,44775.464 7333.68,44087.631 7310.4888,43066.721 6668.9358,42576.285 6896.2568,42436.611 6608.4448,41904.198 6198.8608,41833.996 z"
              fill="#d5daa3" stroke="black">
            <title>Weiach</title>
        </path>
        <path id="153"
              d="M 32163.6,41796 31709.003,41980.402 31423.267,42882.802 31954.529,42851.079 31999.78,43635.584 31696.636,43627.331 32139.743,43799.296 31537.223,44960.456 31903.96,45363.273 33333.46,45130.733 34241.374,43820.603 33634.791,43084.202 33885.328,42818.379 33279.948,42774.26 32704.734,41975.344 32163.604,41795.998 z"
              fill="#d5daa3" stroke="black">
            <title>Rickenbach (ZH)</title>
        </path>
        <path id="18"
              d="M 17966.7,43035.7 18837.957,42987.949 19175.653,43786.888 18944.608,44541.738 19446.739,45201.119 20492.789,45050.206 21016.718,44463.428 21902.849,44360.9 21977.493,43957.001 21672.473,43878.161 21976.481,42921.241 21647.026,43049.874 21656.119,42844.006 22185.51,42509.727 21402.693,41889.797 20850.147,40811.307 20446.05,40922.275 20512.216,41343.58 19796.596,41940.711 19131.532,41704.857 18166.223,42178.22 17966.696,43035.7 z"
              fill="#d5daa3" stroke="black">
            <title>Buch am Irchel</title>
        </path>
        <path id="149"
              d="M 25575.1,41539.7 25403.126,42605.76 25103.792,42498.081 25086.119,43289.804 24730.807,43693.612 25170.215,44702.082 25531.769,44842.036 26158.528,44826.773 27034.585,44048.712 27116.902,44256.926 27371.082,43519.23 27906.607,43630.694 27942.324,43218.785 27094.76,42420.293 25933.92,42049.105 25785.032,41558.415 25575.097,41539.696 z"
              fill="#d5daa3" stroke="black">
            <title>Hettlingen</title>
        </path>
        <path id="45"
              d="M 14721.7,43329 14716.229,43627.151 15086.842,43618.104 15712.437,44682.874 16530.409,44322.728 16480.088,43865.632 17205.628,43902.198 17966.724,43035.711 18166.251,42178.231 19131.56,41704.868 18764.515,40833.502 19043.45,40727.157 18684.233,40340.51 18421.113,40142.655 17859.033,40404.981 17546.412,41009.521 17214.458,40892.582 16810.426,40992.852 16007.669,42722.332 15476.347,42575.931 15353.04,43026.742 14721.698,43328.995 z"
              fill="#d5daa3" stroke="black">
            <title>Freienstein-Teufen</title>
        </path>
        <path id="41"
              d="M 15714.1,38966.2 15378.05,38892.072 14947.662,39353.103 12409.832,37570.853 11852.431,38380.188 12370.826,38692.021 12223.983,39014.552 12674.991,39940.773 12092.585,40344.676 12431.112,41530.496 11933.65,42611.486 12541.398,43274.77 12844.089,43099.341 12712.91,44444.801 13225.29,44389.825 14477.79,43314.065 14546.107,42253.305 15431.366,41163.915 15315.527,40471.644 16365.727,39796.304 16377.174,39127.378 16017.527,38800.959 15714.096,38966.201 z"
              fill="#d5daa3" stroke="black">
            <title>Bülach</title>
        </path>
        <path id="80"
              d="M 7798.78,39301.2 7150.888,39784.52 7079.4334,40448.676 6198.8574,41833.966 6608.4414,41904.168 6896.2534,42436.581 6668.9324,42576.255 7310.4854,43066.691 7333.6766,44087.601 7657.9026,43818.111 8464.0466,44289.366 10675.997,42425.336 10299.365,42193.937 10458.544,41594.191 9960.1516,40754.986 9832.9006,40201.566 8207.8106,39995.17 7798.7756,39301.204 z"
              fill="#d5daa3" stroke="black">
            <title>Stadel</title>
        </path>
        <path id="196"
              d="M 38843,41371.3 38412.01,40762.505 38039.801,41098.721 36896.161,40883.534 36820.107,40198.694 37322.882,39851.377 37011.073,39330.123 36632.539,39198.671 36353.274,39519.305 35433.334,39264.108 35266.732,39382.478 35418.651,40104.969 34934.305,40106.518 34328.409,39574.107 33067.159,39447.851 32313.305,39288.481 31394.665,39635.543 31356.355,40059.243 30960.822,40038.321 30599.502,40512.095 31062.452,41234.234 32163.612,41796.024 32704.742,41975.37 33279.956,42774.286 33885.336,42818.405 33634.799,43084.228 34241.382,43820.629 35047.939,43930.769 35474.524,43947.317 36377.805,41678.827 38843.015,41371.302 z"
              fill="#d5daa3" stroke="black">
            <title>Wiesendangen</title>
        </path>
        <path id="56"
              d="M 16365.7,39796.3 15315.5,40471.64 15431.339,41163.911 14546.08,42253.301 14477.763,43314.061 14721.631,43328.964 15352.973,43026.711 15476.28,42575.9 16007.602,42722.301 16810.359,40992.821 17214.391,40892.551 17164.292,40573.575 16878.19,40615.437 16828.765,39974.329 16365.698,39796.304 z"
              fill="#d5daa3" stroke="black">
            <title>Rorbas</title>
        </path>
        <path id="155"
              d="M 26539,40503.7 25866.013,40325.465 25784.969,41558.435 25933.857,42049.125 27094.697,42420.313 27942.261,43218.805 28696.801,42848.973 29314.156,43264.209 29855.55,43284.325 29077.016,41480.605 28508.747,41226.739 28331.383,40371.317 27595.563,40339.307 26539.003,40503.697 z"
              fill="#d5daa3" stroke="black">
            <title>Seuzach</title>
        </path>
        <path id="61"
              d="M 6198.86,41834 7079.436,40448.71 7150.8906,39784.554 7798.7826,39301.234 7268.8066,38848.82 6829.9096,38929.544 6691.3496,39291.978 5367.9396,38934.703 4885.1006,39623.799 4566.9216,40152.374 3829.9386,40747.882 3218.5886,40818.499 3351.1186,41267.648 3214.8936,42015.867 3452.6146,41811.57 3968.0746,42698.17 4439.1976,42677.888 4790.6896,42711.874 5755.2046,41721.868 6198.8566,41833.999 z"
              fill="#d5daa3" stroke="black">
            <title>Bachs</title>
        </path>
        <path id="47"
              d="M 11933.6,42611.5 12431.062,41530.51 12092.535,40344.69 12674.941,39940.787 12223.933,39014.566 12078.513,39244.4 11231.542,39150.227 11167.547,39703.171 10200.442,39968.504 9960.1146,40754.989 10458.507,41594.194 10299.328,42193.94 10675.96,42425.339 10943.323,41909.408 11933.602,42611.503 z"
              fill="#d5daa3" stroke="black">
            <title>Hochfelden</title>
        </path>
        <path id="143"
              d="M 20850.1,40811.3 21280.756,40161.412 19576.026,40164.172 18684.155,40340.493 19043.372,40727.14 18764.437,40833.485 19131.482,41704.851 19796.546,41940.705 20512.166,41343.574 20446,40922.269 20850.097,40811.301 z"
              fill="#d5daa3" stroke="black">
            <title>Dättlikon</title>
        </path>
        <path id="148"
              d="M 37011.1,39330.1 37322.909,39851.354 36820.134,40198.671 36896.188,40883.511 38039.828,41098.698 38412.037,40762.482 38843.027,41371.277 40497.967,41019.371 40479.66,38439.681 39173.54,38243.454 39032.542,39213.087 38638.715,38863.302 38312.412,39204.918 37761.859,38927.575 37011.096,39330.1 z"
              fill="#d5daa3" stroke="black">
            <title>Hagenbuch</title>
        </path>
        <path id="73"
              d="M 4035.83,35598.1 3670.782,35586.319 3423.737,36027.036 3130.406,35969.174 3195.7232,37165.794 3496.5592,37380.278 3174.4522,37698.635 3338.8042,38828.465 2995.6462,40213.435 2651.5672,40413.794 2786.1772,41095.372 3351.1162,41267.674 3218.5862,40818.525 3829.9362,40747.908 4566.9192,40152.4 3760.1622,40206.988 4237.8292,39258.115 4101.6442,38476.707 3797.0192,38508.014 4201.2892,38185.231 3905.9402,37236.795 4252.3452,37155.139 4011.9062,36180.713 4234.2112,35994.179 4035.8272,35598.094 z"
              fill="#d5daa3" stroke="black">
            <title>Oberweningen</title>
        </path>
        <path id="44"
              d="M 18387.9,36923.1 17369.01,37382.86 16826.904,36728.956 16286.378,36807.337 15832.114,37527.624 16112.662,37863.172 16017.547,38800.986 16377.194,39127.405 16365.747,39796.331 16828.814,39974.356 16878.239,40615.464 17164.341,40573.602 17214.44,40892.578 17546.394,41009.517 17859.015,40404.977 18421.095,40142.651 18684.215,40340.506 19576.086,40164.185 20098.502,39789.409 19720.082,39311.913 20547.283,38458.251 20417.625,37708.256 20059.167,37816.513 18387.897,36923.101 z"
              fill="#d5daa3" stroke="black">
            <title>Embrach</title>
        </path>
        <path id="71"
              d="M 2558.23,40350.3 2560.681,38314.44 2146.201,38332.794 1987.71,37439.965 1733.086,37431.453 1945.239,37160.437 1666.484,37069.642 1388.969,36106.28 1576.781,35501.738 1200.526,35476.151 448.966,35398.849 51.329,37242.649 409.206,37654.179 0.003,37802.756 253.196,38646.569 1576.526,39060.599 1962.282,40682.469 2558.234,40350.302 z"
              fill="#d5daa3" stroke="black">
            <title>Niederweningen</title>
        </path>
        <path id="68"
              d="M 9743.2,37404.1 9045.968,36906.461 7982.898,37084.316 8232.208,37309.46 8071.565,38179.204 7681.664,38158.747 7681.1046,38623.757 7247.5216,38627.098 7268.8094,38848.854 7798.7854,39301.268 8207.8204,39995.234 9832.9104,40201.63 9960.1614,40755.05 10200.488,39968.565 9893.0394,38719.255 9300.8694,38421.929 9743.2044,37404.099 z"
              fill="#d5daa3" stroke="black">
            <title>Neerach</title>
        </path>
        <path id="78"
              d="M 2712.43,35532.7 1576.78,35501.782 1388.968,36106.324 1666.483,37069.686 1945.238,37160.481 1733.085,37431.497 1987.709,37440.009 2146.2,38332.838 2560.68,38314.484 2558.229,40350.344 2651.5731,40413.782 2995.6521,40213.423 3338.8101,38828.453 3174.4581,37698.623 3496.5651,37380.266 3195.7291,37165.782 3130.4119,35969.162 3423.7429,36027.024 3670.7879,35586.308 3537.9529,35562.864 2712.4319,35532.706 z"
              fill="#d5daa3" stroke="black">
            <title>Schleinikon</title>
        </path>
        <path id="79"
              d="M 4234.22,35994.1 4011.915,36180.634 4252.354,37155.06 3905.949,37236.716 4201.298,38185.152 3797.028,38507.935 4101.653,38476.628 4237.838,39258.036 3760.171,40206.909 4566.928,40152.321 4885.107,39623.746 4727.96,38783.763 5324.649,38430.93 5433.505,37572.609 5694.138,37532.8 5019.015,36442.11 4234.221,35994.103 z"
              fill="#d5daa3" stroke="black">
            <title>Schöfflisdorf</title>
        </path>
        <path id="152"
              d="M 20547.3,38458.2 19720.099,39311.862 20098.519,39789.358 19576.103,40164.134 21280.833,40161.374 22836.283,39638.199 22641.328,37559.989 22252.725,37925.046 21142.915,37912.011 20911.861,38751.002 20547.303,38458.204 z"
              fill="#d5daa3" stroke="black">
            <title>Pfungen</title>
        </path>
        <path id="147"
              d="M 34771.2,36774.2 33979.759,36386.05 33964.289,37013.491 32753.389,37131.248 32544.546,37398.194 32038.509,37600.6 31757.021,38290.588 33264.151,39197.317 33067.208,39447.877 34328.458,39574.133 34934.354,40106.544 35418.7,40104.995 35266.781,39382.504 35433.383,39264.134 35668.842,38330.737 35155.78,38006.428 35336.924,37723.903 35041.033,37218.254 34745.834,37309.995 34771.203,36774.2 z"
              fill="#d5daa3" stroke="black">
            <title>Elsau</title>
        </path>
        <path id="48"
              d="M 9743.2,37404.1 9300.865,38421.93 9893.035,38719.256 10200.484,39968.566 11167.589,39703.233 11231.584,39150.289 12078.555,39244.462 12223.975,39014.628 12370.818,38692.096 11852.423,38380.263 12409.824,37570.929 12463.512,37414.433 12179.199,37202.229 11975.63,37094.908 11527.139,37787.293 10412.349,37837.95 9743.2044,37404.105 z"
              fill="#d5daa3" stroke="black">
            <title>Höri</title>
        </path>
        <path id="81"
              d="M 6747.99,35847.2 4035.83,35598.099 4234.214,35994.184 5019.008,36442.191 5694.131,37532.881 5433.498,37572.69 5324.642,38431.011 4727.953,38783.844 4885.1,39623.827 5367.939,38934.731 6691.349,39292.006 6829.909,38929.572 7268.806,38848.848 7247.5182,38627.092 7681.1012,38623.75 7681.6606,38158.74 8071.5616,38179.197 8232.2046,37309.453 7982.8946,37084.309 9045.9646,36906.454 8904.8536,36652.812 8904.9148,36466.227 7434.6748,36380.539 6747.9898,35847.197 z"
              fill="#d5daa3" stroke="black">
            <title>Steinmaur</title>
        </path>
        <path id="200"
              d="M 36353.281,39519.338 35433.344,39264.15 35668.812,38330.744 35155.781,38006.431 35336.906,37723.9 35041.031,37218.244 34745.844,37309.994 34771.188,36774.212 34771.219,36774.181 35771,35645.056 36307.969,35643.962 36931.781,34796.4 37775.469,34526.088 37726.219,33933.431 37987.406,33721.244 37951.156,32534.025 39253.094,32994.712 39626.906,32187.244 39659.656,33271.994 40298.656,33540.994 40186.406,33989.994 40490.938,34068.525 40226.844,34718.806 39684.531,34798.275 39684.5,34798.306 39763.875,35171.244 39480.75,35313.056 39790.062,36088.15 40716.219,36478.15 40342.969,36843.525 40479.656,38439.744 39173.531,38243.525 39032.531,39213.15 38638.688,38863.369 38312.406,39204.994 37761.844,38927.65 37011.094,39330.181 36632.531,39198.712 36353.281,39519.338 z"
              fill="#d5daa3" stroke="black">
            <title>Elgg</title>
        </path>
        <path id="39"
              d="M 13725.9,36322.1 13113.028,36456.594 12893,37223.863 12463.514,37414.374 12409.826,37570.87 14947.656,39353.12 15378.044,38892.089 15714.094,38966.216 15815.611,38664.025 15370.212,38704.708 15736.452,37932.68 13498.742,37035.401 13725.906,36322.102 z"
              fill="#d5daa3" stroke="black">
            <title>Bachenbülach</title>
        </path>
        <path id="60"
              d="M 13725.9,36322.1 13498.736,37035.399 15736.446,37932.678 15370.206,38704.706 15815.605,38664.023 15714.088,38966.214 16017.519,38800.972 16112.634,37863.158 15832.086,37527.61 16286.35,36807.323 16172.181,36495.676 16737.516,35529.338 16349.48,34791.149 15184.04,34940.118 15543.698,34288.782 15058.546,33817.52 14871.12,34014.895 14632.724,34266.732 14013.273,34915.774 14252.783,35140.643 13725.897,36322.103 z"
              fill="#d5daa3" stroke="black">
            <title>Winkel</title>
        </path>
        <path id="53"
              d="M 19092,35699.4 18884.737,36586.522 18387.828,36923.077 20059.098,37816.489 20417.556,37708.232 20547.214,38458.227 20911.772,38751.025 21142.826,37912.034 22252.636,37925.069 22641.239,37560.012 22832.053,36746.602 22163.488,36126.108 22449.684,35789.234 22282.831,34627.614 21293.831,34707.976 20924.873,35461.277 20192.976,34934.875 19593.794,34733.053 19583.06,35424.947 19092.003,35699.403 z"
              fill="#d5daa3" stroke="black">
            <title>Oberembrach</title>
        </path>
        <path id="69"
              d="M 10802.2,35757.2 9728.34,36816.57 9353.709,36287.703 8904.817,36652.751 9045.928,36906.393 9743.16,37404.032 10412.305,37837.877 11527.095,37787.22 11975.586,37094.835 12179.155,37202.156 12331.615,36948.288 10802.195,35757.198 z"
              fill="#d5daa3" stroke="black">
            <title>Niederglatt</title>
        </path>
        <path id="72"
              d="M 13725.9,36322.1 14252.786,35140.64 14013.276,34915.771 14632.727,34266.729 13796.091,33902.966 13497.435,34172.54 13320.286,33537.912 13173.946,33813.063 12598.377,33685.961 12480.01,34458.687 11948.327,33706.991 11429.314,33957.274 11179.032,34811.21 10631.916,35281.614 10802.242,35757.207 12331.662,36948.297 12179.202,37202.165 12463.515,37414.369 12893.001,37223.858 13113.029,36456.589 13725.901,36322.095 z"
              fill="#d5daa3" stroke="black">
            <title>Oberglatt</title>
        </path>
        <path id="51"
              d="M 16737.5,35529.3 16172.165,36495.638 16286.334,36807.285 16826.86,36728.904 17368.966,37382.808 18387.856,36923.048 18884.765,36586.493 19092.028,35699.371 18614.167,35130.405 18783.37,34547.269 18129.44,34086.392 17775.969,34807.261 16737.509,35529.3 z"
              fill="#d5daa3" stroke="black">
            <title>Lufingen</title>
        </path>
        <path id="70"
              d="M 7926.04,33380.1 7949.7544,34033.945 8250.2074,34153.099 8325.363,34714.386 8608.83,34715.891 8904.914,36466.201 8904.8527,36652.786 9353.7447,36287.738 9728.3757,36816.605 10802.236,35757.235 10631.91,35281.642 11179.026,34811.238 11429.308,33957.302 11948.321,33707.019 12480.004,34458.715 12598.371,33685.989 11542.681,33069.569 11658.261,32429.413 11030.176,32098.61 10828.616,31610.06 10394.036,31844.664 10331.182,32563.461 10068.745,32776.151 9744.4838,32498.918 9385.5338,33202.928 8051.5638,33110.74 7926.0338,33380.096 z"
              fill="#d5daa3" stroke="black">
            <title>Niederhasli</title>
        </path>
        <path id="154"
              d="M 37726.2,33933.4 37987.389,33721.2 37429.18,32952.355 37002.198,33198.337 34932.658,34011.966 33317.928,34030.643 33038.847,34440.459 33439.592,35163.912 34084.182,35325.315 33707.048,36021.41 33979.761,36386.017 34771.202,36774.167 35770.999,35645.037 36307.979,35643.939 36931.768,34796.381 37775.463,34526.066 37726.201,33933.399 z"
              fill="#d5daa3" stroke="black">
            <title>Schlatt</title>
        </path>
        <path id="141"
              d="M 24428.9,36393 25852.5,34547.86 25348.224,34243.349 24737.532,34252.715 23839.157,33470.896 23289.929,33620.723 22282.909,34627.653 22449.762,35789.273 22163.566,36126.147 22832.131,36746.641 23644.791,35958.168 24428.902,36392.997 z"
              fill="#d5daa3" stroke="black">
            <title>Brütten</title>
        </path>
        <path id="66"
              d="M 8904.92,36466.2 8608.836,34715.89 8325.369,34714.385 8250.2134,34153.098 7949.7604,34033.944 7926.046,33380.099 7660.537,33421.416 7753.2654,33820.031 7301.2314,33615.138 7124.1934,34023.3 5243.9834,34116.751 5770.2484,34992.836 6053.9034,35111.01 6149.9209,34721.198 6747.9899,35847.178 7434.6749,36380.52 8904.9149,36466.208 z"
              fill="#d5daa3" stroke="black">
            <title>Dielsdorf</title>
        </path>
        <path id="75"
              d="M 3537.95,35562.8 3670.785,35586.244 4035.833,35598.024 6747.993,35847.125 6149.924,34721.145 6053.9065,35110.957 5770.2515,34992.783 5243.9865,34116.698 4779.3905,34216.685 4415.6285,34458.753 4625.1855,34801.358 4390.0545,35459.186 3537.9535,35562.795 z"
              fill="#d5daa3" stroke="black">
            <title>Regensberg</title>
        </path>
        <path id="50"
              d="M 18076.9,30638.5 17819.892,30617.563 17405.147,30956.33 16081.477,30983.25 16066.106,31231.756 14936.846,31094.035 14267.925,31873.733 14466.431,32518.436 14199.1,32701.746 14871.132,34014.936 15058.558,33817.561 15543.71,34288.823 15184.052,34940.159 16349.493,34791.19 16737.528,35529.379 17775.988,34807.34 18129.459,34086.471 18783.389,34547.348 18614.186,35130.484 19092.047,35699.45 19583.104,35424.994 19593.838,34733.1 20193.021,34934.922 20209.396,34302.653 20771.366,33829.619 20265.843,33149.934 19685.228,33324.857 19245.969,33057.876 18802.06,32447.196 18588.65,31007.866 18076.893,30638.505 z"
              fill="#d5daa3" stroke="black">
            <title>Kloten</title>
        </path>
        <path id="62"
              d="M 4642.82,32895.3 2430.13,34308.92 2874.277,34981.784 2588.829,35227.056 2712.424,35532.675 3537.945,35562.833 4390.046,35459.224 4625.177,34801.396 4415.62,34458.791 4779.382,34216.723 4642.819,32895.303 z"
              fill="#d5daa3" stroke="black">
            <title>Boppelsen</title>
        </path>
        <path id="74"
              d="M 2493.95,32081.8 2270.79,31941.491 1960.885,32680.599 1191.659,32995.47 651.415,33776.426 803.532,34236.806 1370.096,34327.461 1200.524,35476.181 1576.779,35501.768 2712.429,35532.686 2588.834,35227.067 2874.282,34981.795 2430.135,34308.931 4642.825,32895.311 4202.802,32792.978 4727.275,32259.689 4549.304,32094.975 2493.954,32081.792 z"
              fill="#d5daa3" stroke="black">
            <title>Otelfingen</title>
        </path>
        <path id="52"
              d="M 22780.6,30665.8 22072.131,30936.585 21344.061,31751.276 21147.31,32528.915 20265.826,33149.937 20771.349,33829.622 20209.379,34302.656 20193.004,34934.925 20924.901,35461.327 21293.859,34708.026 22282.859,34627.664 23289.879,33620.734 23839.107,33470.907 24279.032,32648.003 23095.472,32036.01 22780.599,30665.8 z"
              fill="#d5daa3" stroke="black">
            <title>Nürensdorf</title>
        </path>
        <path id="159"
              d="M 35768.8,31398.5 35750.212,30915.662 35299.061,30545.083 35204.464,30791.43 34778.053,30696.106 34816.95,31089.11 34057.666,31304.101 33536.5,30393.321 32940.724,31351.883 32263.544,31394.864 32681.382,32520.134 31400.882,33006.069 30496.392,33607.989 31287.512,33422.13 33038.832,34440.48 33317.913,34030.664 34932.643,34011.988 37002.183,33198.359 36531.456,32388.026 35971.587,32075.625 35768.797,31398.499 z"
              fill="#d5daa3" stroke="black">
            <title>Zell (ZH)</title>
        </path>
        <path id="77"
              d="M 10828.6,31610 11030.16,32098.55 11658.245,32429.353 11542.665,33069.509 12598.355,33685.929 13173.924,33813.031 13320.264,33537.88 13497.413,34172.508 13796.069,33902.934 14632.705,34266.697 14871.101,34014.86 14199.068,32701.67 14466.399,32518.36 14267.893,31873.657 14936.814,31093.959 15272.997,30456.587 15003.397,30005.824 12750.707,30251.189 11785.323,29981.23 10966.948,30389.063 10828.605,31610.003 z"
              fill="#d5daa3" stroke="black">
            <title>Rümlang</title>
        </path>
        <path id="122"
              d="M 23811.5,28438.5 23661.424,28341.235 22797.776,28977.129 23016.63,29270.391 22576.044,29782.698 22780.563,30665.762 23095.436,32035.972 24278.996,32647.965 23839.071,33470.869 24737.446,34252.688 25348.138,34243.322 26328.811,34194.069 26044.234,33273.294 26456.175,33249.293 26352.873,32456.955 26629.683,32385.511 26682.967,31629.325 26235.928,31138.484 25208.468,31457.905 24536.874,30875.019 24585.362,29410.419 24253.583,28917.293 23805.492,28964.318 23811.501,28438.502 z"
              fill="#d5daa3" stroke="black">
            <title>Lindau</title>
        </path>
        <path id="63"
              d="M 4549.3,32095 4727.271,32259.714 4202.798,32793.003 4642.821,32895.336 4779.384,34216.756 5243.98,34116.769 7124.19,34023.318 7301.228,33615.156 7753.262,33820.049 7660.5336,33421.434 7926.0426,33380.117 8051.5726,33110.761 6337.3926,31824.661 4738.3026,31984.991 4549.3126,32095.005 z"
              fill="#d5daa3" stroke="black">
            <title>Buchs (ZH)</title>
        </path>
        <path id="156"
              d="M 35768.8,31398.5 35971.59,32075.626 36531.459,32388.027 37002.186,33198.36 37429.168,32952.378 37987.377,33721.223 37951.152,32534.033 39253.072,32994.711 39626.896,32187.25 39659.645,33271.99 40298.646,33540.977 40186.395,33989.982 40490.936,34068.512 41510.346,32655.602 41173.615,31946.682 41509.591,31344.39 41815.345,31039.664 43374.005,30880.255 43152.938,30571.379 41586.618,30528.124 41993.942,30173.689 42078.721,29081.009 41323.158,27293.839 40799.754,27191.902 40266.688,27502.847 39802.873,28220.324 38057.603,27960.106 37617.121,28336.517 37596.031,28800.964 38231.585,28764.758 38637.786,29447.192 37783.553,29344.344 37456.4,29892.773 37748.068,30050.58 36902.068,29799.327 36675.322,30295.827 36654.432,31300.567 35768.803,31398.511 z"
              fill="#d5daa3" stroke="black">
            <title>Turbenthal</title>
        </path>
        <path id="198"
              d="M 29903.2,27371.3 28919.246,27416.261 28350.545,27042.393 28579.285,26579.903 28326.755,26112.572 27187.725,26494.326 27223.656,26220.681 26961.158,26241.731 25629.829,27422.841 25335.409,27597.704 25166.544,27360.055 24672.434,28119.052 24312.422,27860.078 23811.561,28438.524 23805.553,28964.34 24253.644,28917.316 24585.423,29410.442 24536.935,30875.042 25208.529,31457.928 26235.989,31138.507 26683.028,31629.348 26629.744,32385.534 27013.286,32308.805 27211.196,33586.686 27511.621,33486.908 28053.036,33656.949 28303.91,33278.369 28524.163,33827.914 28973.92,33874.879 29508.622,33679.556 29944.626,34457.016 30444.658,33691.247 30501.846,33610.361 31409.607,33005.148 31390.798,32027.894 30855.477,31564.564 29624.943,31519.906 29420.133,31170.333 29697.971,30595.955 29380.791,29817.318 30011.419,28229.408 29903.202,27371.298 29903.2,27371.3 z"
              fill="#d5daa3" stroke="black">
            <title>Illnau-Effretikon</title>
        </path>
        <path id="76"
              d="M 6643.55,29626.6 7174.263,30631.65 6439.088,31281.02 6337.382,31824.638 8051.562,33110.738 9385.532,33202.926 9744.482,32498.916 10068.743,32776.149 10331.18,32563.459 10394.034,31844.662 10828.614,31610.058 10966.957,30389.118 10545.022,30206.305 9767.9779,29976.162 9687.4693,29623.894 10095.689,29399.405 9963.6053,29026.896 9102.9753,28758.721 8014.4653,28597.49 7296.4523,28851.507 6643.5463,29626.6 z"
              fill="#d5daa3" stroke="black">
            <title>Regensdorf</title>
        </path>
        <path id="40"
              d="M 22780.6,30665.8 22576.081,29782.736 23016.667,29270.429 22797.813,28977.167 20509.823,29999.957 20373.816,30531.168 19191.736,30462.693 18588.634,31007.865 18802.044,32447.195 19245.953,33057.875 19685.212,33324.856 20265.826,33149.933 21147.31,32528.911 21344.061,31751.272 22072.131,30936.581 22780.6,30665.796 z"
              fill="#d5daa3" stroke="black">
            <title>Bassersdorf</title>
        </path>
        <path id="126"
              d="M 30011.4,28229.4 29380.772,29817.31 29697.952,30595.947 29420.114,31170.325 29630.278,31521.525 30856.808,31566.84 31401.578,32039.088 31400.841,33006.089 32681.341,32520.154 32263.503,31394.884 32940.683,31351.903 33536.459,30393.341 33871.092,30048.689 33770.714,29672.442 32636.454,29149.819 31577.524,28017.959 30681.014,28093.931 30675.118,28624.56 30011.391,28229.396 z"
              fill="#d5daa3" stroke="black">
            <title>Weisslingen</title>
        </path>
        <path id="65"
              d="M 4486.11,30300.6 3548.149,30550.29 2871.733,30875.742 2948.2824,31488.729 2707.3354,31474.087 2493.9534,32081.82 4549.3034,32095.003 4738.2934,31984.989 4724.7883,31575.403 4409.4123,31479.774 4486.1066,30300.604 z"
              fill="#d5daa3" stroke="black">
            <title>Dänikon</title>
        </path>
        <path id="67"
              d="M 2068.14,30312.5 1833.515,31582.32 2270.791,31941.464 2493.951,32081.773 2707.333,31474.04 2948.28,31488.682 2871.7306,30875.695 3548.1466,30550.243 2068.1366,30312.5 z"
              fill="#d5daa3" stroke="black">
            <title>Hüttikon</title>
        </path>
        <path id="64"
              d="M 6337.39,31824.6 6439.096,31280.982 7174.271,30631.612 6643.558,29626.562 4647.068,30262.785 4486.112,30300.537 4409.4177,31479.707 4724.7937,31575.336 4738.2988,31984.922 6337.3888,31824.592 z"
              fill="#d5daa3" stroke="black">
            <title>Dällikon</title>
        </path>
        <path id="128"
              d="M 37511.3,26785.6 37521.433,26536.228 36637.047,26490.212 36036.014,27085.09 35686.43,27170.049 35165.678,26714.918 34822.772,26954.667 34698.638,27693.354 34048.29,28134.636 33770.695,29672.476 33871.073,30048.723 33536.44,30393.375 34057.606,31304.155 34816.89,31089.164 34777.993,30696.16 35204.404,30791.484 35299.001,30545.137 35750.152,30915.716 35768.74,31398.554 36654.369,31300.61 36675.259,30295.87 36218.773,30449.081 35693.112,29385.931 36528.983,27810.391 37419.756,27919.285 37721.706,27549.37 37511.3,26785.601 z"
              fill="#d5daa3" stroke="black">
            <title>Wildberg</title>
        </path>
        <path id="54"
              d="M 15613.5,28352.1 14931.786,28909.604 15194.566,29439.435 15003.45,30005.912 15273.05,30456.675 14936.867,31094.047 16066.127,31231.768 16081.499,30983.262 17405.168,30956.342 17819.913,30617.575 17916.375,29881.293 17410.855,29542.587 17530.314,29313.942 16456.384,29198.77 16404.367,28842.679 15613.497,28352.097 z"
              fill="#d5daa3" stroke="black">
            <title>Opfikon</title>
        </path>
        <path id="42"
              d="M 19837.6,27483.8 18615.39,29323.53 18818.367,29596.291 18481.144,30538.916 18076.857,30638.454 18588.614,31007.815 19191.716,30462.643 20373.796,30531.118 20509.803,29999.907 20049.206,29348.563 20600.235,27633.403 19837.604,27483.805 z"
              fill="#d5daa3" stroke="black">
            <title>Dietlikon</title>
        </path>
        <path id="57"
              d="M 16404.3,28842.6 16456.317,29198.691 17530.247,29313.863 17410.788,29542.508 17916.308,29881.214 17819.847,30617.496 18076.855,30638.433 18481.142,30538.894 18818.365,29596.269 18615.388,29323.508 19837.598,27483.778 18594.528,27056.036 18203.894,27311.51 16367.284,27886.899 16404.296,28842.6 z"
              fill="#d5daa3" stroke="black">
            <title>Wallisellen</title>
        </path>
        <path id="165"
              d="M 2068.14,30312.5 3548.15,30550.243 4486.111,30300.553 4647.067,30262.801 4528.882,29754.197 3612.609,29539.09 3466.59,28856.67 2355.6,29540.227 1407.301,29829.069 1526.043,30199.329 1891.577,30050.964 2068.139,30312.5 z"
              fill="#d5daa3" stroke="black">
            <title>Oetwil an der Limmat</title>
        </path>
        <path id="127"
              d="M 39902.4,26173.9 37920.76,26080.7 37511.369,26785.568 37721.775,27549.337 37419.825,27919.252 36529.052,27810.358 35693.181,29385.898 36218.842,30449.048 36675.328,30295.837 36902.074,29799.337 37748.074,30050.59 37456.406,29892.783 37783.559,29344.354 38637.792,29447.202 38231.591,28764.768 37596.037,28800.974 37617.128,28336.527 38057.61,27960.116 39802.88,28220.334 40266.695,27502.857 40799.761,27191.912 41323.165,27293.849 41591.863,27148.276 40131.503,26993.766 39902.401,26173.904 z"
              fill="#d5daa3" stroke="black">
            <title>Wila</title>
        </path>
        <path id="170"
              d="M 4528.88,29754.2 4647.065,30262.804 6643.555,29626.581 7296.461,28851.488 6656.089,28070.34 5473.089,27657.45 5144.276,27037.667 4647.788,27368.38 4010.145,27232.077 4051.5312,27624.734 4597.0382,27644.591 4328.9542,28191.972 5029.6232,29125.215 4515.9622,29307.101 4528.8831,29754.2 z"
              fill="#d5daa3" stroke="black">
            <title>Weiningen (ZH)</title>
        </path>
        <path id="138"
              d="M 22421.2,26212.8 20600.28,27633.46 20049.251,29348.62 20509.848,29999.964 22797.838,28977.174 23661.486,28341.28 23764.046,27646.57 22421.196,26212.8 z"
              fill="#d5daa3" stroke="black">
            <title>Wangen-Brüttisellen</title>
        </path>
        <path id="163"
              d="M 3466.59,28856.7 3612.609,29539.12 4528.882,29754.227 4515.9611,29307.128 5029.6221,29125.242 4328.9531,28191.999 4597.0371,27644.618 4051.5301,27624.761 3466.5901,28856.701 z"
              fill="#d5daa3" stroke="black">
            <title>Geroldswil</title>
        </path>
        <path id="124"
              d="M 29903.2,27371.3 30011.417,28229.41 30675.144,28624.574 30681.04,28093.945 31577.55,28017.972 32636.48,29149.832 33770.74,29672.455 34048.335,28134.615 34698.683,27693.333 34822.817,26954.646 34566.661,26225.543 34762.01,25780.501 34411.851,25273.77 33643.183,25570.729 32433.493,24696.718 31766.729,25033.263 31045.028,25478.352 30602.751,27038.762 29903.201,27371.305 z"
              fill="#d5daa3" stroke="black">
            <title>Russikon</title>
        </path>
        <path id="162"
              d="M 5315.49,26035.7 3886.38,25918.729 4126.136,25661.062 3907.11,23869.672 3330.984,23642.122 2968.828,24304.58 3074.385,25764.84 2062.365,25823.662 1767.935,26413.103 791.132,26280.859 867.716,26494.089 1337.461,26913.939 1965.005,26817.193 2156.949,27120.455 1892.242,27581.563 2200.073,28033.98 1928.067,28233.988 2364.638,28249.416 2709.001,28771.221 2355.598,29540.257 3466.588,28856.7 4051.528,27624.76 4010.1418,27232.103 3875.1688,26938.141 4209.7938,26527.475 5879.1938,26721.634 5315.4918,26035.697 z"
              fill="#d5daa3" stroke="black">
            <title>Dietikon</title>
        </path>
        <path id="168"
              d="M 5879.19,26721.6 4209.79,26527.441 3875.165,26938.107 4010.138,27232.069 4647.781,27368.372 5144.269,27037.659 5473.082,27657.442 6656.082,28070.332 7296.454,28851.48 8014.467,28597.463 7500.577,27494.353 7216.193,27472.552 6575.581,27456.349 5879.181,26721.598 z"
              fill="#d5daa3" stroke="black">
            <title>Unterengstringen</title>
        </path>
        <path id="164"
              d="M 8434.41,26839.5 7216.2,27472.527 7500.584,27494.328 8014.474,28597.438 9102.984,28758.669 8558.395,28456.851 8443.892,27989.636 8797.925,27690.734 9142.89,27844.248 9214.9434,26967.489 8434.4154,26839.5 z"
              fill="#d5daa3" stroke="black">
            <title>Oberengstringen</title>
        </path>
        <path id="137"
              d="M 22295.8,25962.6 22421.231,26212.758 23764.081,27646.528 23661.521,28341.238 23811.597,28438.503 24312.458,27860.057 24672.47,28119.031 25166.58,27360.034 25335.445,27597.683 25629.864,27422.82 26961.194,26241.71 27223.692,26220.66 27187.761,26494.305 28326.791,26112.551 28351.745,25380.212 27852.834,25412.056 28183.877,24820.099 27375.447,24112.737 26193.717,24977.408 25306.965,24812.078 24321.89,23888.821 23601.236,24434.54 22944.37,25116.526 22971.639,25827.629 22295.803,25962.602 z"
              fill="#d5daa3" stroke="black">
            <title>Volketswil</title>
        </path>
        <path id="129"
              d="M 21651.3,24615.3 20749.712,24843.389 19966.431,24385.313 19808.107,22977.873 18928.175,23176.924 17664.425,24824.924 17924.164,25042.548 17455.92,25538.249 17172.988,25333.811 17544.187,26166.367 18153.355,26266.663 17948.463,26885.486 18203.946,27311.507 18594.58,27056.033 19837.65,27483.775 20600.281,27633.374 22421.201,26212.714 22295.77,25962.556 21651.302,24615.306 z"
              fill="#d5daa3" stroke="black">
            <title>Dübendorf</title>
        </path>
        <path id="166"
              d="M 5315.49,26035.7 5879.192,26721.637 6575.592,27456.388 7216.204,27472.591 8434.414,26839.564 8249.276,26315.453 8845.765,25961.632 8233.201,25956.319 8424.34,25461.421 7955.039,25170.982 7765.888,24532.343 6981.724,24290.904 6979.0919,24292.186 5831.9619,25524.766 5380.9219,25562.769 5315.4867,26035.702 z"
              fill="#d5daa3" stroke="black">
            <title>Schlieren</title>
        </path>
        <path id="118"
              d="M 30219.5,22821.2 29851.09,23499.641 29229.799,23730.001 29088.179,24366.157 28183.873,24820.051 27852.83,25412.008 28351.741,25380.165 28326.786,26112.504 28579.316,26579.835 28350.576,27042.325 28919.277,27416.193 29903.231,27371.231 30602.781,27038.688 31045.058,25478.278 31766.759,25033.189 31083.096,24567.919 31097.375,23912.614 30456.455,23787.297 30219.499,22821.194 z"
              fill="#d5daa3" stroke="black">
            <title>Fehraltorf</title>
        </path>
        <path id="197"
              d="M 44192.1,24258.8 43460.156,23157.519 42963.826,23041.022 42664.563,22482.987 42077.912,22437.041 42153.342,21211.832 41768.957,21434.339 41435.631,21788.131 40930.613,21700.708 40897.53,21979.929 40364.233,21591.643 40126.859,21864.472 39885.251,21654.272 37870.014,23101.945 37318.843,23437.144 37093.008,24675.941 36538.028,24933.074 C 36624.565,24992.961 36621.791,25088.204 36685.652,25148.091 L 36411.577,25567.053 36722.592,25653.038 36632.479,26506.842 37496.97,26530.744 37516.261,26783.096 37932.684,26093.797 39902.337,26173.939 40131.439,26993.801 41591.799,27148.311 42642.319,26993.217 44287.059,25589.807 44139.584,24833.048 44408.454,24402.737 44192.094,24258.8 44192.1,24258.8 z"
              fill="#d5daa3" stroke="black">
            <title>Bauma</title>
        </path>
        <path id="123"
              d="M 35238.8,20757.9 35815.361,20225.56 34985.139,19924.493 32948.269,20433.801 32745.694,20691.261 33124.146,21095.409 32057.146,22907.839 31259.452,22486.103 31412.057,21736.472 30202.327,21252.678 29930.863,22327.198 30219.472,22821.247 30456.428,23787.35 31097.348,23912.667 31083.069,24567.972 31766.732,25033.242 32433.496,24696.697 33643.186,25570.708 34411.854,25273.749 34762.013,25780.48 34566.664,26225.522 34822.82,26954.625 35165.726,26714.876 35686.478,27170.007 36036.062,27085.048 36637.095,26490.17 36744.395,25663.418 36417.895,25565.773 35073.875,25366.616 34180.279,24680.496 34116.527,24130.742 33809.774,24157.629 33727.271,23722.929 34411.646,22863.22 34210.528,22171.716 34565.185,21869.402 34653.377,20939.698 35238.809,20757.899 z"
              fill="#d5daa3" stroke="black">
            <title>Pfäffikon</title>
        </path>
        <path id="169"
              d="M 3330.98,23642.1 3907.106,23869.65 4126.132,25661.04 3886.376,25918.707 5315.486,26035.678 5380.9212,25562.745 5831.9612,25524.743 6979.0912,24292.163 6071.6302,23046.053 5477.9342,22740.066 3991.9942,22742.666 3899.1214,23139.122 3395.2494,23164.84 3330.9808,23642.096 z"
              fill="#d5daa3" stroke="black">
            <title>Urdorf</title>
        </path>
        <path id="135"
              d="M 23451,23613.7 22671.167,23674.279 21651.327,24615.351 22295.795,25962.601 22971.631,25827.628 22944.362,25116.525 23601.228,24434.539 23422.001,24232.145 23757.304,24085.97 23450.999,23613.696 z"
              fill="#d5daa3" stroke="black">
            <title>Schwerzenbach</title>
        </path>
        <path id="119"
              d="M 35238.8,20757.9 34653.368,20939.699 34565.176,21869.403 34210.519,22171.717 34411.637,22863.221 33727.262,23722.93 33809.765,24157.63 34116.518,24130.743 34180.271,24680.497 35073.867,25366.617 36417.887,25565.774 36716.148,25134.509 36551.54,24947.678 37096.362,24671.243 37330.486,23437.573 37882.246,23097.646 37628.121,21905.546 37177.199,21812.066 36450.641,20997.119 35456.63,21120.858 35238.801,20757.901 z"
              fill="#d5daa3" stroke="black">
            <title>Hittnau</title>
        </path>
        <path id="136"
              d="M 25221.3,21523.8 25747.589,21954.934 25301.457,22522.178 25456.569,22872.759 24659.564,23193.562 24800.857,23487.163 24321.886,23888.833 25306.961,24812.09 26193.713,24977.42 27375.443,24112.749 28183.873,24820.111 29088.179,24366.217 29229.799,23730.061 29851.09,23499.701 30219.5,22821.26 29930.891,22327.211 30202.355,21252.691 30157.478,20790.75 30642.659,20301.449 30262.955,19675.358 30441.635,19134.63 30435.723,18775.885 29168.253,18134.648 28725.086,18702.387 26887.396,17899.762 26129.975,18537.035 26486.481,18575.608 26577.014,19413.553 25442.194,20179.277 25221.304,21523.797 z"
              fill="#d5daa3" stroke="black">
            <title>Uster</title>
        </path>
        <path id="131"
              d="M 22798.4,22027.6 22285.396,22217.812 21810.767,21987.771 21748.841,22203.612 20952.943,21910.605 20536.167,22443.23 20146.832,22221.584 19596.673,22382.419 19808.096,22977.872 19966.42,24385.312 20749.701,24843.388 21651.289,24615.299 22671.129,23674.227 22444.136,22620.397 22798.402,22027.592 z"
              fill="#d5daa3" stroke="black">
            <title>Fällanden</title>
        </path>
        <path id="171"
              d="M 10967,30389.1 11785.375,29981.267 12750.759,30251.226 15003.449,30005.861 15194.565,29439.384 14931.785,28909.553 15613.499,28352.049 16404.369,28842.631 16367.357,27886.93 18203.967,27311.541 17948.484,26885.52 18153.376,26266.697 17544.208,26166.401 17173.009,25333.845 17455.941,25538.283 17924.185,25042.582 17664.446,24824.958 18928.196,23176.958 19808.128,22977.907 19596.705,22382.454 20146.864,22221.619 20355.414,21584.711 18882.644,21493.69 18703.055,21172.174 17466.305,21395.74 15817.485,20613.926 15347.526,21240.323 14749.887,21369.252 14329.626,22688.812 14261.54,22902.591 13744.785,22576.537 13572.169,20840.987 14209.237,19401.107 13714.932,18815.785 12781.768,18135.278 11236.458,17676.324 11124.812,19498.734 10822.195,20383.25 9965.4305,21265.692 9629.8715,21928.888 8706.9485,22249.388 8230.0645,22866.479 8668.0215,23615.922 6981.7615,24290.871 7765.9255,24532.31 7955.0765,25170.949 8424.3775,25461.388 8233.2385,25956.286 8845.8025,25961.598 8249.3135,26315.419 8434.4515,26839.53 9214.9795,26967.519 9142.9261,27844.278 8797.9611,27690.764 8443.9281,27989.666 8558.4311,28456.881 9103.0201,28758.699 9963.6501,29026.874 10095.734,29399.383 9687.5141,29623.872 9768.0227,29976.14 10545.067,30206.283 10967.002,30389.096 z"
              fill="#d5daa3" stroke="black">
            <title>Zürich</title>
        </path>
        <path id="132"
              d="M 24321.8,23888.8 24800.771,23487.13 24659.478,23193.529 25456.483,22872.726 25301.371,22522.145 25747.503,21954.901 25221.214,21523.767 23450.914,23613.677 23757.219,24085.951 23421.916,24232.126 23601.143,24434.52 24321.797,23888.801 z"
              fill="#d5daa3" stroke="black">
            <title>Greifensee</title>
        </path>
        <path id="86"
              d="M 40373.2,17706.8 40497.513,18187.097 42286.993,17929.719 42403.526,18624.157 41942.268,18813.347 42181.814,19006.854 41640.163,19747.966 41972.716,20081.298 41559.22,20674.218 41772.283,21439.821 42152.284,21207.752 42059.886,22434.152 42658.725,22482.85 42960.06,23052.83 43455.863,23156.547 44192.097,24258.707 44408.457,24402.644 44995.598,23947.686 45713.172,21970.256 46588.978,21853.946 46721.721,20447.716 47187.302,20242.782 47064.87,19044.032 47656.465,18186.868 46931.198,16806.258 46047.64,17367.767 44509.83,17284.713 43660.489,17612.874 43167.325,17238.437 42979.594,17441.911 42714.267,17128.038 41992.734,17093.851 40802.054,17216.646 40373.195,17706.789 40373.2,17706.8 z"
              fill="#d5daa3" stroke="black" opacity="1">
            <title>Fischenthal</title>
        </path>
        <path id="167"
              d="M 6071.63,23046.1 6979.091,24292.21 6981.7231,24290.928 8667.9831,23615.979 8230.0261,22866.536 8706.9101,22249.445 9629.8331,21928.945 9965.3921,21265.749 9041.1421,21359.742 8464.9511,21451.031 8051.8341,22324.588 7584.3801,22058.171 7452.0721,22473.453 6162.5121,22754.135 6071.6256,23046.1 z"
              fill="#d5daa3" stroke="black">
            <title>Uitikon</title>
        </path>
        <path fill="#c6dbef"
              d="M 25221.3,21523.8 l 220.89,-1344.52 1134.82,-765.724 -90.5322,-837.945 -356.506,-38.5734 -229.911,-490.359 -527.833,96.7207 -1155.99,2557.95 -534.355,175.827 -883.441,1150.48 -354.266,592.805 226.993,1053.83 779.833,-60.5794 1770.3,-2089.91 z "
        />
        <path id="83"
              d="M 35815.3,20225.6 35238.739,20757.94 35456.568,21120.897 36450.579,20997.158 37177.137,21812.105 37628.059,21905.585 37882.184,23097.685 39881.554,21666.975 40117.501,21865.567 40353.227,21603.411 40903.863,22000.173 40930.304,21719.75 41425.069,21793.397 41772.252,21439.904 41559.189,20674.301 41972.685,20081.381 41640.132,19748.049 42181.783,19006.937 41942.237,18813.43 42403.495,18624.24 42286.962,17929.802 40497.482,18187.18 40373.169,17706.883 39167.589,17731.849 38667.541,18220.581 38277.28,18041.473 37283.602,18388.712 36988.887,18797.324 36686.256,19483.417 35891.474,19704.504 35815.294,20225.6 z"
              fill="#d5daa3" stroke="black">
            <title>Bäretswil</title>
        </path>
        <path id="161"
              d="M 3992,22742.7 5477.94,22740.099 6071.636,23046.086 6162.5225,22754.121 7452.0825,22473.439 7584.3905,22058.157 8051.8445,22324.574 8464.9615,21451.017 9041.1525,21359.728 8439.6155,20814.778 7771.3545,20935.547 7580.4825,20629.162 8076.2465,19425.732 7590.6995,19249.067 7304.6215,20090.43 6524.8615,20525.546 6521.5442,20209.405 5966.7252,20546.643 4680.8352,20010.009 4650.9134,19467.774 3691.9904,20505.904 4089.3534,21457.234 3748.7084,22456.041 3991.9994,22742.697 z"
              fill="#d5daa3" stroke="black">
            <title>Birmensdorf (ZH)</title>
        </path>
        <path fill="#c6dbef"
              d="M 31412,21736.5 l -152.605,749.631 797.694,421.736 1067,-1812.43 -378.452,-404.148 202.575,-257.46 -951.556,-176.001 -584.656,1478.67 z "/>
        <path fill="#c6dbef"
              d="M 17678,12194.9 l -594.227,1350.4 -1415.92,2194.27 -417.255,1492.57 -1041.37,2168.99 -637.068,1439.88 172.616,1735.55 516.755,326.054 68.0854,-213.779 420.261,-1319.56 597.639,-128.929 469.959,-626.397 575.211,-1553.21 404.763,-1602.9 762.682,-1154.47 909.693,-1457.09 926.058,-1213.88 1402.58,-1260.08 2955.34,-1075.57 828.792,-344.368 2224.26,-1306.41 673.461,-737.129 1461.8,-615.323 2954.73,160.062 974.105,-9.2589 634.888,555.228 1613.92,-341.261 15.3358,-808.276 -433.817,-188.831 322.677,-487.844 723.442,-34.801 485.709,-555.727 976.857,-130.23 401.795,239.523 -7.24065,447.353 707.674,71.8892 1616.31,-673.811 2902.76,1161.05 1028.26,18.7118 1106.71,-170.304 -440.77,-328.671 323.691,-434.458 -352.081,-268.527 -2985.44,-1147.45 -837.462,-44.5247 -154.487,404.733 -2652.31,-640.07 -196.427,-1179.11 -693.331,-146.811 -647.706,408.819 -1049.82,-28.9789 -249.492,600.028 -1249.3,481.039 -22.1049,630.307 548.459,402.884 41.0675,446.305 -984.763,-603.165 -199.781,-746.987 -2663.72,145.346 -1294.78,-368.188 300.048,514.858 -1475.95,-1021.04 -703.374,260.816 -510.586,992.296 -1234.07,878.319 -2202.9,1867.86 -809.136,1328.58 -665.302,285.463 -574.015,-286.303 -575.89,200.677 -2515.39,1215.97 -561.107,827.904 z "
              opacity="1"/>
        <path id="133"
              d="M 22032.7,18904 22009.788,19632.062 21241.551,20108.499 21156.775,20592.022 20746.285,20564.459 20829.538,20874.463 20481.436,21120.489 20355.417,21584.739 20146.867,22221.647 20536.202,22443.293 20952.978,21910.668 21748.876,22203.675 21810.802,21987.834 22285.431,22217.875 22798.435,22027.663 23681.876,20877.183 24216.231,20701.356 25372.221,18143.406 25900.054,18046.685 25929.788,17951.972 24735.408,17126.653 24457.381,17417.312 22822.701,16517.571 22722.705,16743.173 22993.645,17143.647 22718.978,18158.007 22032.703,18904 z"
              fill="#d5daa3" stroke="black">
            <title>Maur</title>
        </path>
        <path id="91"
              d="M 30901.7,19115.3 30441.618,19134.606 30262.938,19675.334 30642.642,20301.425 30157.461,20790.726 30202.338,21252.667 31412.068,21736.461 31996.724,20257.791 32088.334,19351.123 31110.14,19497.901 30901.694,19115.301 z"
              fill="#d5daa3" stroke="black">
            <title>Seegräben</title>
        </path>
        <path id="116"
              d="M 16392.7,19060.7 15817.489,20613.91 17466.309,21395.724 18703.059,21172.158 18882.648,21493.674 20355.418,21584.695 20481.437,21120.445 20327.021,20360.481 19551.78,20233.047 18750.543,19409.13 18511.709,19487.34 17933.725,18834.025 17132.575,19250.585 16392.701,19060.7 z"
              fill="#d5daa3" stroke="black">
            <title>Zollikon</title>
        </path>
        <path id="13"
              d="M 9278.1,14629.9 9728.569,15087.125 9659.3352,16494.295 10407.077,16777.652 9748.4932,17209.708 9777.2855,18061.721 9875.2487,18793.497 9471.4147,19774.905 8439.6147,20814.775 9041.1517,21359.725 9965.4017,21265.732 10822.167,20383.29 11124.784,19498.774 11236.43,17676.364 11775.869,16395.834 11529.531,15361.464 11750.981,14012.254 11561.378,13852.543 10513.588,14576 9325.6477,14166.774 9278.1021,14629.891 z"
              fill="#d5daa3" stroke="black">
            <title>Stallikon</title>
        </path>
        <path id="115"
              d="M 18750.5,19409.2 19551.737,20233.117 20326.978,20360.551 20481.394,21120.515 20829.496,20874.489 20746.244,20564.485 21156.734,20592.048 21241.509,20108.525 22009.746,19632.088 22032.658,18904.026 21814.495,18476.967 21156.408,18619.531 20768.176,17978.837 19359.996,18491.197 19432.393,18811.261 19154.056,18686.716 19284.491,18981.65 18750.496,19409.202 z"
              fill="#d5daa3" stroke="black">
            <title>Zumikon</title>
        </path>
        <path id="14"
              d="M 7590.7,19249 8076.247,19425.665 7580.483,20629.095 7771.355,20935.48 8439.616,20814.711 9471.416,19774.841 9875.25,18793.433 9777.2868,18061.657 9321.0358,18139.447 9259.1127,18453.225 8378.9167,18496.8 8377.5971,18990.662 7964.3361,18753.831 7590.6991,19249.004 z"
              fill="#d5daa3" stroke="black">
            <title>Wettswil am Albis</title>
        </path>
        <path id="160"
              d="M 4650.91,19467.7 4680.8318,20009.935 5966.7218,20546.569 6521.5408,20209.331 6524.8581,20525.472 7304.6181,20090.356 7590.6961,19248.993 7506.6998,19240.182 6057.3198,18173.402 5651.2998,18395.065 4660.9408,18059.915 4364.9678,18423.739 4650.9108,19467.699 z"
              fill="#d5daa3" stroke="black">
            <title>Aesch bei Birmensdorf</title>
        </path>
        <path id="93"
              d="M 35815.3,20225.6 35891.48,19704.504 36686.262,19483.417 36988.893,18797.324 36652.182,17094.514 35828.593,16989.484 35043.893,17788.098 34036.763,16887.224 34759.078,15883.534 34399.714,15371.932 34156.89,15748.673 33431.879,15829.918 33315.976,16538.956 32681.399,17018.484 32650.173,17387.701 32099.094,17735.313 31877.054,17570.298 30901.617,19115.348 31110.063,19497.948 32088.257,19351.17 31996.647,20257.838 32948.203,20433.839 34985.073,19924.531 35815.295,20225.598 z"
              fill="#d5daa3" stroke="black">
            <title>Wetzikon (ZH)</title>
        </path>
        <path id="109"
              d="M 20974.3,16495.5 20477.156,17141.29 19989.574,16926.301 19993.414,16588.36 19240.856,16707.343 17931.976,16303.806 17650.959,16553.639 17560.067,16303.332 16797.385,17457.802 16392.622,19060.702 17132.496,19250.587 17933.646,18834.027 18511.63,19487.342 18750.464,19409.132 19284.459,18981.58 19154.024,18686.646 19432.361,18811.191 19359.964,18491.127 20768.144,17978.767 21156.376,18619.461 21814.463,18476.897 22032.626,18903.956 22718.901,18157.963 22993.568,17143.603 22722.628,16743.129 21425.998,16814.735 20974.301,16495.497 z"
              fill="#d5daa3" stroke="black">
            <title>Küsnacht (ZH)</title>
        </path>
        <path id="98"
              d="M 14047.1,16552 13596.703,18081.75 13714.873,18815.823 14209.178,19401.145 15250.548,17232.155 14047.108,16552 z"
              fill="#d5daa3" stroke="black">
            <title>Kilchberg (ZH)</title>
        </path>
        <path id="3"
              d="M 9777.28,18061.7 9748.4877,17209.687 10407.072,16777.631 9659.3297,16494.274 9728.5635,15087.104 6565.7935,17125.064 7506.6935,19240.234 7590.6898,19249.045 7964.3268,18753.872 8377.5878,18990.703 8378.9074,18496.841 9259.1034,18453.266 9321.0265,18139.488 9777.2775,18061.698 z"
              fill="#d5daa3" stroke="black">
            <title>Bonstetten</title>
        </path>
        <path id="94"
              d="M 11751,14012.2 11529.55,15361.41 11775.888,16395.78 11236.449,17676.31 12781.759,18135.264 13714.923,18815.771 13596.753,18081.698 14047.15,16551.948 13343.103,15509.238 12830.428,14592.053 12038.821,13909.5 11751.005,14012.202 z"
              fill="#d5daa3" stroke="black">
            <title>Adliswil</title>
        </path>
        <path id="89"
              d="M 34670,14927.3 34399.737,15371.893 34759.101,15883.495 34036.786,16887.185 35043.916,17788.059 35828.616,16989.445 36652.205,17094.475 36988.916,18797.285 37283.631,18388.673 38277.309,18041.434 38667.57,18220.542 39167.618,17731.81 40373.198,17706.844 40802.057,17216.701 41992.737,17093.906 41757.272,16781.659 40745.852,16806.268 40228.567,15519.668 40604.465,13533.838 40056.725,13597.387 39321.031,14417.777 38481.824,14352.613 37892.089,13730.156 37455.538,14538.266 36680.777,14664.893 35847.142,14219.439 35649.72,13559.958 34837.095,14011.743 34670.01,14927.304 z"
              fill="#d5daa3" stroke="black">
            <title>Hinwil</title>
        </path>
        <path id="87"
              d="M 28330.3,15159.5 28847.078,15283.305 28897.639,15070.657 29216.526,15370.255 28984.048,15832.565 29235.551,16085.369 28399.59,16667.387 29280.159,17678.837 29168.18,18134.662 30435.65,18775.899 30441.562,19134.644 30901.644,19115.338 31877.081,17570.288 32099.121,17735.303 32650.2,17387.691 32681.425,17018.474 33316.002,16538.946 33431.905,15829.908 34156.916,15748.663 34399.74,15371.922 34670.003,14927.329 33789.889,14636.577 34376.238,13855.989 33320.128,13108.25 33005.941,13153.08 32803.692,13773.719 32235.346,13860.671 30903.526,14953.681 29925.138,14922.842 29778.381,14606.849 29155.881,14850.328 28997.821,14367.157 28465.287,14486.32 28130.086,14931.462 28330.3,15159.498 z"
              fill="#d5daa3" stroke="black">
            <title>Gossau (ZH)</title>
        </path>
        <path id="134"
              d="M 25929.7,17951.9 25899.966,18046.614 26129.877,18536.973 26887.298,17899.7 28724.988,18702.325 29168.155,18134.586 29280.134,17678.761 28399.565,16667.311 29235.526,16085.293 28984.023,15832.489 29216.501,15370.179 28897.614,15070.581 28847.053,15283.229 28330.275,15159.424 27677.119,15799.504 26865.19,15834.306 26241.898,16417.628 26138.118,16832.533 26610.757,17104.723 26278.648,17303.283 26569.702,17651.957 25929.697,17951.902 z"
              fill="#d5daa3" stroke="black">
            <title>Mönchaltorf</title>
        </path>
        <path id="130"
              d="M 23277.1,15707.5 22822.645,16517.583 24457.325,17417.324 24735.352,17126.665 25929.732,17951.984 26569.737,17652.039 26278.683,17303.365 26610.792,17104.805 26138.153,16832.615 26241.933,16417.71 26865.225,15834.388 27677.154,15799.586 28330.31,15159.506 28130.096,14931.47 28465.297,14486.328 28997.831,14367.165 28961.055,14051.739 27941.805,14329.033 27165.289,13858.34 26816.446,13060.873 26361.383,13194.081 25817.969,12900.697 24937.202,13876.211 23277.102,15707.501 z"
              fill="#d5daa3" stroke="black">
            <title>Egg</title>
        </path>
        <path id="92"
              d="M 40257.7,10642.3 41765.24,12058.6 41695.813,12610.593 40642.493,12607.67 40604.473,13533.793 40228.575,15519.623 40745.86,16806.223 41757.28,16781.614 41992.745,17093.861 42714.278,17128.049 42979.605,17441.922 43167.336,17238.448 43660.5,17612.885 44509.841,17284.724 46047.65,17367.778 46931.208,16806.269 45609.778,16512.796 44985.225,15109.136 43843.825,14658.609 44374.736,14231.632 44466.176,13720.423 44970.818,13893.425 44816.725,13127.656 44448.495,12876.495 44705.829,12581.805 43863.596,11387.185 40257.696,10642.3 z"
              fill="#d5daa3" stroke="black" opacity="1">
            <title>Wald (ZH)</title>
        </path>
        <path id="102"
              d="M 14236.4,14735.6 13343.037,15509.233 14047.084,16551.943 15250.524,17232.098 15667.779,15739.528 14918.239,15485.476 14236.394,14735.601 z"
              fill="#d5daa3" stroke="black">
            <title>Rüschlikon</title>
        </path>
        <path id="106"
              d="M 18469.8,14846.3 17560.107,16303.39 17650.999,16553.697 17932.016,16303.864 19240.896,16707.401 19993.454,16588.418 19989.614,16926.359 20477.196,17141.348 20974.34,16495.558 20172.335,16046.352 19513.507,16219.767 18996.889,15670.3 19327.747,15290.4 19165.944,15017.305 18469.799,14846.298 z"
              fill="#d5daa3" stroke="black">
            <title>Erlenbach (ZH)</title>
        </path>
        <path id="5"
              d="M 9728.57,15087.1 9278.101,14629.875 8041.861,14733.298 7993.78,14315.403 7318.508,14142.183 6799.534,14308.414 6379.663,14945.309 5916.826,14924.227 5664.944,15424.402 5869.63,16637.102 6565.805,17125.059 9728.575,15087.099 z"
              fill="#d5daa3" stroke="black">
            <title>Hedingen</title>
        </path>
        <path id="107"
              d="M 18469.8,14846.3 19165.945,15017.307 19327.748,15290.402 18996.89,15670.302 19513.508,16219.769 20172.336,16046.354 20974.341,16495.56 21426.038,16814.798 22722.668,16743.192 22822.664,16517.59 23277.119,15707.507 22383.166,15313.562 21746.919,14069.182 20388.559,13596.092 19698.387,13860.971 19395.858,13632.417 18469.8,14846.297 z"
              fill="#d5daa3" stroke="black">
            <title>Herrliberg</title>
        </path>
        <path id="104"
              d="M 14903.6,12446.3 14925.058,13052.877 14278.742,13536.443 14469.757,13970.243 14236.442,14735.664 14918.287,15485.539 15667.827,15739.591 17083.747,13545.321 15178.777,12448.341 14903.601,12446.301 z"
              fill="#d5daa3" stroke="black">
            <title>Thalwil</title>
        </path>
        <path id="111"
              d="M 23753.8,11296.7 20798.46,12372.27 19395.88,13632.35 19698.409,13860.904 20388.581,13596.025 21746.941,14069.115 22383.188,15313.495 23277.141,15707.44 24937.241,13876.15 24139.056,12847.67 23753.798,11296.7 z"
              fill="#d5daa3" stroke="black">
            <title>Meilen</title>
        </path>
        <path id="99"
              d="M 11561.4,13852.5 11751.003,14012.211 12038.819,13909.509 12830.426,14592.062 13343.101,15509.247 14236.464,14735.614 14469.779,13970.193 14278.764,13536.393 14925.08,13052.827 14903.622,12446.25 15004.535,12167.605 14231.985,11611.815 14041.156,11051.621 13768.253,11121.603 13488.275,11704.921 12475.915,11710.704 12244.627,12491.795 11914.636,12112.12 11360.643,12434.882 11890.401,13141.909 11561.407,13852.499 z"
              fill="#d5daa3" stroke="black">
            <title>Langnau am Albis</title>
        </path>
        <path id="2"
              d="M 5553.08,12906.1 4954.831,14547.96 4581.455,14626.936 5664.945,15424.371 5916.827,14924.196 6379.664,14945.278 6799.535,14308.383 7318.509,14142.152 7993.781,14315.372 8041.862,14733.267 9278.102,14629.844 9325.6476,14166.727 8867.3146,13650.453 9312.0456,13353.804 8955.2106,13110.742 9315.7616,11945.722 8993.0186,11324.876 8165.2316,11359.382 7567.3746,11852.63 7113.9856,11791.438 7161.566,11346.036 6916.548,11610.542 6199.896,13131.612 5553.082,12906.097 z"
              fill="#d5daa3" stroke="black">
            <title>Affoltern am Albis</title>
        </path>
        <path id="84"
              d="M 35952.8,10303.3 34496.87,10000.747 33487.9,10050.82 32323.61,11914.65 33320.148,13108.19 34376.258,13855.929 33789.909,14636.517 34670.023,14927.269 34837.108,14011.708 35649.733,13559.923 35908.859,13170.109 35585.477,13062.661 35678.394,12618.753 36519.204,11631.078 35897.625,10898.881 35952.801,10303.3 z"
              fill="#d5daa3" stroke="black" opacity="1">
            <title>Bubikon</title>
        </path>
        <path id="88"
              d="M 33320.2,13108.2 32323.662,11914.66 31243.712,12428.321 29737.662,12126.102 29207.895,12637.039 29374.048,12971.08 28608.808,13609.968 28979.177,13694.37 28961.117,14051.68 28997.892,14367.106 29155.952,14850.277 29778.452,14606.798 29925.209,14922.791 30903.597,14953.63 32235.417,13860.62 32803.763,13773.668 33006.012,13153.029 33320.199,13108.199 z"
              fill="#d5daa3" stroke="black">
            <title>Grüningen</title>
        </path>
        <path id="85"
              d="M 36519.2,11631.1 35678.39,12618.775 35585.473,13062.683 35908.855,13170.131 35649.729,13559.945 35847.151,14219.426 36680.786,14664.88 37455.547,14538.253 37892.098,13730.143 38481.833,14352.6 39321.04,14417.763 40056.734,13597.373 40604.474,13533.825 40642.494,12607.702 38790.024,12448.825 37922.891,12096.847 37701.01,11441.287 36519.2,11631.099 z"
              fill="#d5daa3" stroke="black" opacity="1">
            <title>Dürnten</title>
        </path>
        <path id="11"
              d="M 4581.45,14627 4954.826,14548.024 5553.075,12906.164 5601.4054,12357.31 5151.6814,12649.204 4718.2314,12120.695 3616.2214,11787.17 3646.397,12315.68 2617.657,14206.64 3263.809,13977.075 4581.459,14626.995 z"
              fill="#d5daa3" stroke="black">
            <title>Ottenbach</title>
        </path>
        <path id="1"
              d="M 11177.3,12296.5 11277.113,11919.555 11335.291,11549.755 11247.484,11124.92 11134.238,11104.766 10106.998,11040.418 9880.8043,10652.004 8992.9823,11324.936 9315.7253,11945.782 8955.1743,13110.802 9312.0093,13353.864 8867.2783,13650.513 9325.6113,14166.787 10513.551,14576.013 11561.341,13852.556 11890.335,13141.966 11360.577,12434.939 11177.294,12296.503 z"
              fill="#d5daa3" stroke="black">
            <title>Aeugst am Albis</title>
        </path>
        <path id="112"
              d="M 25966.3,12629.4 25817.936,12900.609 26361.35,13193.993 26816.413,13060.785 27165.256,13858.252 27941.772,14328.945 28961.022,14051.651 28979.082,13694.341 28608.713,13609.939 29373.953,12971.051 29207.8,12637.01 29737.567,12126.073 28478.387,11400.042 27241.407,11777.633 26512.536,12591.377 25966.309,12629.399 z"
              fill="#d5daa3" stroke="black">
            <title>Oetwil am See</title>
        </path>
        <path id="114"
              d="M 24582.6,10952.4 23753.808,11296.768 24139.066,12847.738 24937.251,13876.218 25818.018,12900.704 25966.382,12629.495 24582.602,10952.405 z"
              fill="#d5daa3" stroke="black">
            <title>Uetikon am See</title>
        </path>
        <path id="100"
              d="M 15178.8,12448.3 17083.77,13545.28 17677.997,12194.88 16741,11412.413 15556.76,11784.757 15178.799,12448.294 z"
              fill="#d5daa3" stroke="black">
            <title>Oberrieden</title>
        </path>
        <path id="10"
              d="M 4599.56,9075.73 3745.613,10270.87 3616.221,11787.14 4718.231,12120.665 5151.681,12649.174 5601.405,12357.28 5553.0746,12906.134 6199.8886,13131.649 6916.5406,11610.579 5959.1806,10877.316 6202.2496,9527.946 4785.7396,9465.08 4599.5606,9075.74 z"
              fill="#d5daa3" stroke="black">
            <title>Obfelden</title>
        </path>
        <path id="90"
              d="M 35952.8,10303.3 35897.624,10898.881 36519.203,11631.078 37701.013,11441.266 37922.894,12096.827 38790.027,12448.804 40642.497,12607.681 41695.817,12610.604 41765.245,12058.611 40257.705,10642.311 39367.758,10534.891 39396.251,10054.538 38417.555,9546.642 38002.483,9665.498 37721.571,10408.339 37200.008,9939.262 35952.798,10303.301 z"
              fill="#d5daa3" stroke="black">
            <title>Rüti (ZH)</title>
        </path>
        <path id="110"
              d="M 26806.8,9645.95 24582.54,10952.36 25966.32,12629.45 26512.547,12591.428 27241.418,11777.684 27359.464,10640.474 26806.795,9645.9527 z"
              fill="#d5daa3" stroke="black">
            <title>Männedorf</title>
        </path>
        <path id="4"
              d="M 11177.3,12296.5 11360.583,12434.936 11914.576,12112.174 12244.567,12491.849 12475.855,11710.758 13488.215,11704.975 13768.193,11121.657 14711.036,9665.8071 15583.473,8931.2971 16347.736,7428.3971 17198.322,6786.1951 16992.682,6462.3411 15715.612,6542.081 15217.264,6946.562 14433.343,6802.575 13989.012,7529.143 14381.497,7642.032 14046.823,8015.913 12806.433,8523.876 12209.582,8503.6868 12149.011,9895.5568 12365.485,10009.569 11247.475,11124.919 11335.282,11549.754 11277.104,11919.554 11177.291,12296.499 z"
              fill="#d5daa3" stroke="black" opacity="1">
            <title>Hausen am Albis</title>
        </path>
        <path id="199"
              d="M 15178.812,12448.306 14903.625,12446.275 15004.562,12167.619 14232,11611.838 14041.188,11051.65 13768.281,11121.619 14711.125,9665.775 15583.562,8931.275 16347.812,7428.369 17198.375,6786.212 17198.344,6786.181 16992.688,6462.306 17459.188,6351.494 17426.344,5572.619 18336.406,5710.681 18641.938,4590.119 19207.531,5003.244 19902.594,4357.025 20274.375,5121.9 20778.594,5241.275 20870.75,5892.994 20004.844,6970.525 20004.906,6970.525 20512.188,7663.994 20506.719,8437.962 21199.344,9145.181 20754.5,10151.025 18239.125,11366.994 17678,12194.9 16741.031,11412.431 15556.781,11784.775 15178.812,12448.306 z"
              fill="#d5daa3" stroke="black">
            <title>Horgen</title>
        </path>
        <path id="108"
              d="M 33505.8,8999.53 32870.912,8444.302 31896.807,8453.5609 31390.391,8531.1954 31226.31,9142.7264 30623.562,9268.4944 30418.043,9699.3804 30128.179,9604.3962 29574.175,10295.722 29619.832,10721.75 28478.412,11400.094 29737.592,12126.125 31243.642,12428.344 32323.592,11914.683 33487.882,10050.853 34496.852,10000.78 34005.523,9847.8794 33505.796,8999.5324 z"
              fill="#d5daa3" stroke="black" opacity="1">
            <title>Hombrechtikon</title>
        </path>
        <path id="9"
              d="M 9899.3,8469.42 10483.601,7433.05 10332.037,6399.63 10047.902,6338.1788 8456.902,8158.2788 7988.744,8048.3468 7517.206,8659.2228 7217.074,8454.1428 6981.003,8985.4578 6767.811,8802.8408 6634.894,9219.3538 6411.073,9088.5108 6202.251,9527.9248 5959.182,10877.295 6916.542,11610.558 7161.56,11346.052 7113.9796,11791.454 7567.3686,11852.646 8165.2256,11359.398 8993.0126,11324.892 9880.8346,10651.96 10107.029,11040.374 11134.269,11104.722 10478.632,9922.2017 9933.8566,10304.225 9010.6016,10125.696 9431.5546,9829.0117 9204.2626,9319.7227 10003.18,8660.9757 9899.3016,8469.4127 z"
              fill="#d5daa3" stroke="black">
            <title>Mettmenstetten</title>
        </path>
        <path id="113"
              d="M 28478.4,11400.1 29619.82,10721.756 29574.163,10295.728 30128.167,9604.402 30418.031,9699.3862 30623.55,9268.5002 31226.298,9142.7322 31390.379,8531.2012 31896.795,8453.5667 28942.065,8293.5047 27480.265,8908.8277 26806.804,9645.9567 27359.473,10640.478 27241.427,11777.688 28478.407,11400.097 z"
              fill="#d5daa3" stroke="black">
            <title>Stäfa</title>
        </path>
        <path id="12"
              d="M 9899.3,8469.42 10003.178,8660.983 9204.261,9319.73 9431.553,9829.019 9010.6,10125.703 9933.855,10304.232 10478.63,9922.209 11134.267,11104.729 11247.513,11124.883 12365.523,10009.533 12149.049,9895.5212 12209.62,8503.6512 12806.471,8523.8404 12883.277,8287.4494 12000.424,8070.6514 12112.611,7561.8824 11007.331,8303.2414 9899.3015,8469.4154 z"
              fill="#d5daa3" stroke="black">
            <title>Rifferswil</title>
        </path>
        <path id="202"
              d="M 24091.992,4624.201 25116.408,5563.996 24999.682,6078.415 25581.733,6754.742 23378.832,8622.601 22569.695,9951.181 21904.395,10236.644 21330.379,9950.341 20754.488,10151.019 21199.322,9145.169 20506.694,8437.962 20512.16,7663.978 20004.891,6970.505 20870.817,5892.984 M 20870.777,5892.984 20778.602,5241.277 20274.393,5121.878 19902.609,4357.025 20919.77,2179.794 20608.117,1492.001 21285.998,1323.695 V 1323.695 H 21286.008 L 22040.25,1014.492 23405.371,1183.015 23460.891,141.316 23830.807,0.005 25803.826,452.5 25727.496,1075.517 25042.775,1653.91 24926.477,2696.74 23990.742,2641.279 23455.594,3091.496 24091.957,4624.201 M 24091.987,4624.201 V 4624.201 H 24091.997 Z"
              fill="#d5daa3" stroke="black" opacity="1">
            <title>Wädenswil</title>
        </path>
        <path id="8"
              d="M 7100.43,6852.77 6679.621,7049.596 5211.341,6821.948 4599.558,9075.728 4785.737,9465.068 6202.247,9527.934 6411.069,9088.52 6398.7618,8358.181 6759.5398,8120.75 7100.4258,6852.77 z"
              fill="#d5daa3" stroke="black">
            <title>Maschwanden</title>
        </path>
        <path id="7"
              d="M 10337.5,5496.67 9140.45,5226.763 8890.941,5765.976 8233.491,5783.0206 7868.004,6325.9806 7193.87,6481.2486 7100.4069,6852.7666 6759.5209,8120.7466 6398.7429,8358.1776 6411.0501,9088.5166 6634.8711,9219.3596 6767.7881,8802.8466 6980.9801,8985.4636 7217.0511,8454.1486 7517.1831,8659.2286 7988.7211,8048.3526 8456.8791,8158.2846 10047.879,6338.1846 10337.498,5496.6676 z"
              fill="#d5daa3" stroke="black">
            <title>Knonau</title>
        </path>
        <path id="6"
              d="M 10337.5,5496.67 10047.881,6338.187 10332.016,6399.6382 10483.58,7433.0582 9899.279,8469.4282 11007.309,8303.2542 12112.589,7561.8952 12000.402,8070.6642 12883.255,8287.4622 12806.448,8523.8532 14046.838,8015.8902 14381.512,7642.0092 13989.027,7529.1202 14433.358,6802.5522 13606.894,6800.7735 13503.963,6291.9525 12098.863,6477.3595 12086.594,6042.0405 10337.504,5496.6755 z"
              fill="#d5daa3" stroke="black">
            <title>Kappel am Albis</title>
        </path>
        <path id="101"
              d="M 24926.5,2696.74 23990.765,2641.2783 23455.617,3091.4963 24091.984,4624.2063 25116.404,5564.0053 24999.677,6078.4253 25581.727,6754.7513 26815.797,5876.4323 27326.383,4884.1363 27092.915,4590.1793 26628.424,4790.7273 26530.863,4328.9253 25895.444,4118.6243 24926.498,2696.7443 z"
              fill="#d5daa3" stroke="black">
            <title>Richterswil</title>
        </path>
        <path id="158"
              d="M 30599.5,40512.1 30960.82,40038.326 31356.353,40059.248 31394.663,39635.548 32313.303,39288.486 33067.157,39447.856 33264.1,39197.296 31756.97,38290.567 32038.458,37600.579 32544.495,37398.173 32753.338,37131.227 33964.238,37013.47 33979.708,36386.029 33706.995,36021.422 34084.129,35325.327 33439.539,35163.924 33038.794,34440.471 31287.474,33422.121 30496.354,33607.98 30438.388,33698.42 29951.013,34458.832 29523.832,33660.664 28980.649,33871.214 28528.82,33829.892 28309.266,33276.607 28048.318,33650.505 27511.603,33486.868 27211.178,33586.645 27013.268,32308.764 26629.726,32385.493 26352.916,32456.936 26456.218,33249.274 26044.277,33273.275 26328.854,34194.05 25348.181,34243.303 25852.457,34547.814 24428.857,36392.954 23644.746,35958.125 22832.086,36746.598 22641.272,37560.008 22836.227,39638.218 24040.717,39846.346 25060.197,41180.566 24948.804,41396.917 25575.053,41539.643 25784.988,41558.362 25866.032,40325.392 26539.019,40503.627 27595.579,40339.237 28331.399,40371.247 28508.763,41226.669 29077.032,41480.535 29855.566,43284.255 31423.266,42882.821 31709.002,41980.421 32163.599,41796.019 31062.439,41234.229 30599.489,40512.09 z"
              fill="#d5daa3" stroke="black">
            <title>Winterthur</title>
        </path>
        <path id="151"
              d="M 20850.1,40811.3 21402.646,41889.79 22185.463,42509.72 21656.072,42843.999 21646.979,43049.867 21976.434,42921.234 21672.426,43878.154 21977.446,43956.994 21902.802,44360.893 22369.454,44231.93 22993.431,44724.557 23244.437,44715.091 23988.768,44314.581 24176.585,43472.143 24730.735,43693.583 25086.047,43289.775 25103.72,42498.052 25403.054,42605.731 25575.028,41539.671 24948.779,41396.945 25060.172,41180.594 24040.692,39846.374 22836.202,39638.246 21280.752,40161.421 20850.096,40811.309 z"
              fill="#d5daa3" stroke="black">
            <title>Neftenbach</title>
        </path>
    </g>
</svg>
